IKResults
version=1
nRows=11
nColumns=40
inDegrees=yes

Units are S.I. units (second, meters, Newtons, ...)
If the header above contains a line with 'inDegrees', this indicates whether rotational values are in degrees (yes) or radians (no).

endheader
time	pelvis_tilt	pelvis_list	pelvis_rotation	pelvis_tx	pelvis_ty	pelvis_tz	hip_flexion_r	hip_adduction_r	hip_rotation_r	knee_angle_r	knee_angle_r_beta	ankle_angle_r	subtalar_angle_r	mtp_angle_r	hip_flexion_l	hip_adduction_l	hip_rotation_l	knee_angle_l	knee_angle_l_beta	ankle_angle_l	subtalar_angle_l	mtp_angle_l	lumbar_extension	lumbar_bending	lumbar_rotation	arm_flex_r	arm_add_r	arm_rot_r	elbow_flex_r	pro_sup_r	wrist_flex_r	wrist_dev_r	arm_flex_l	arm_add_l	arm_rot_l	elbow_flex_l	pro_sup_l	wrist_flex_l	wrist_dev_l
      2.62000000	    -14.63669677	     -0.61729140	     -1.06000606	     -0.26384334	      0.85636553	     -0.89652367	     27.90943785	     -7.77585573	     -6.98388051	     25.46662724	      0.44447649	     13.12004368	      0.00000000	      0.00000000	     27.51453493	    -10.58432430	      0.80596784	     21.67976827	      0.37838334	     13.38775572	      0.00000000	      0.00000000	     -0.24840100	      0.14606160	     -0.11392752	    -20.42598509	    -41.99252409	     31.71143869	     90.31474072	     25.37909188	      0.00000000	      0.00000000	    -25.70041075	    -40.86891448	     23.74006863	     90.14374384	      7.46031000	      0.00000000	      0.00000000
      2.62500000	    -14.67783327	     -0.66251460	     -0.93933705	     -0.26449434	      0.85569103	     -0.89672836	     28.16527607	     -7.82005466	     -7.08740144	     25.85749678	      0.45129846	     13.42401051	      0.00000000	      0.00000000	     27.91643421	    -10.60384919	      0.98770535	     22.21541310	      0.38773210	     13.53966515	      0.00000000	      0.00000000	     -0.40775792	      0.20099855	     -0.17901974	    -20.38256969	    -42.03686546	     31.83422478	     90.14166543	     27.34555687	      0.00000000	      0.00000000	    -25.61003017	    -40.92809182	     23.76653026	     90.27314173	      7.45910889	      0.00000000	      0.00000000
      2.63000000	    -14.85612046	     -0.62417372	     -0.95971136	     -0.26527957	      0.85473178	     -0.89678379	     28.68596892	     -7.89408084	     -7.00346992	     26.32219705	      0.45940900	     13.55083673	      0.00000000	      0.00000000	     28.43135538	    -10.60868663	      0.93285317	     22.73589702	      0.39681626	     13.77029113	      0.00000000	      0.00000000	     -0.40871580	      0.20480079	     -0.19663884	    -20.35231434	    -42.09764618	     31.75185942	     89.89990054	     29.49463300	      0.00000000	      0.00000000	    -25.68394550	    -40.96470316	     23.76292994	     90.30487120	      7.38798790	      0.00000000	      0.00000000
      2.63500000	    -14.99487716	     -0.54400158	     -0.99738651	     -0.26605422	      0.85394918	     -0.89681256	     29.14866696	     -7.99662841	     -6.83605472	     26.79503908	      0.46766166	     13.60898977	      0.00000000	      0.00000000	     28.81322116	    -10.57489246	      0.89099406	     23.07372307	      0.40271244	     13.79319862	      0.00000000	      0.00000000	     -0.44187955	      0.13790437	     -0.14560238	    -20.37575952	    -42.08483466	     31.69143525	     89.85511357	     30.34994609	      0.00000000	      0.00000000	    -25.64704152	    -40.90751759	     23.68401247	     90.15276700	      7.62989821	      0.00000000	      0.00000000
      2.64000000	    -15.12123627	     -0.55748238	     -0.98387759	     -0.26659483	      0.85307429	     -0.89693009	     29.53583237	     -8.02948752	     -6.81768674	     27.20411529	      0.47480138	     13.79651734	      0.00000000	      0.00000000	     29.31374204	    -10.62554166	      0.82766600	     23.72276674	      0.41404039	     14.10022838	      0.00000000	      0.00000000	     -0.49274095	      0.17259258	     -0.16474138	    -20.46232096	    -42.09524658	     31.56870231	     89.72811194	     31.59750580	      0.00000000	      0.00000000	    -25.79095891	    -40.92168930	     23.64182562	     90.31794208	      7.32485534	      0.00000000	      0.00000000
      2.64500000	    -15.20053108	     -0.47685487	     -0.95050230	     -0.26734699	      0.85233468	     -0.89712594	     29.92291831	     -8.17156432	     -6.74259611	     27.67251897	      0.48297657	     13.98946841	      0.00000000	      0.00000000	     29.61951224	    -10.52025464	      0.94970573	     24.00995028	      0.41905269	     14.18437307	      0.00000000	      0.00000000	     -0.58054819	      0.11216279	     -0.20612042	    -20.24218498	    -42.24218163	     31.88213781	     89.54685592	     32.66456321	      0.00000000	      0.00000000	    -25.61862432	    -41.04940565	     23.95064564	     90.24629020	      7.42285248	      0.00000000	      0.00000000
      2.65000000	    -15.30072895	     -0.38519060	     -0.99283878	     -0.26829075	      0.85150999	     -0.89712144	     30.39057209	     -8.27632911	     -6.56792616	     28.17783825	      0.49179605	     14.16099442	      0.00000000	      0.00000000	     30.02585533	    -10.48073999	      0.85987228	     24.51423134	      0.42785405	     14.41537327	      0.00000000	      0.00000000	     -0.67918939	      0.03323870	     -0.18159297	    -20.09240392	    -42.23761968	     31.93769297	     89.42624082	     33.52712536	      0.00000000	      0.00000000	    -25.53860184	    -41.12869083	     24.09228004	     90.25615199	      7.51714072	      0.00000000	      0.00000000
      2.65500000	    -15.48309414	     -0.37158473	     -0.96698145	     -0.26916130	      0.85047208	     -0.89724141	     30.86875201	     -8.33309253	     -6.49199733	     28.60099899	      0.49918160	     14.37233545	      0.00000000	      0.00000000	     30.54996678	    -10.47786330	      0.90199543	     24.97376822	      0.43587448	     14.51044382	      0.00000000	      0.00000000	     -0.69466949	      0.05727308	     -0.21069739	    -20.06252878	    -42.37069357	     31.86011614	     89.38255371	     34.26614324	      0.00000000	      0.00000000	    -25.52439890	    -41.16903363	     24.07263588	     90.24849091	      7.60072250	      0.00000000	      0.00000000
      2.66000000	    -15.57291920	     -0.41486904	     -0.86731133	     -0.26969728	      0.84960185	     -0.89747039	     31.15487328	     -8.38035597	     -6.61616152	     28.93290067	      0.50497438	     14.51381114	      0.00000000	      0.00000000	     31.03367519	    -10.50331263	      0.99568673	     25.59837499	      0.44677593	     14.72823954	      0.00000000	      0.00000000	     -0.75860162	      0.12443949	     -0.31088608	    -20.10980093	    -42.34644222	     31.88582316	     89.28237752	     35.17949343	      0.00000000	      0.00000000	    -25.55013009	    -41.20872611	     24.13450033	     90.37711554	      7.28432948	      0.00000000	      0.00000000
      2.66500000	    -15.69250617	     -0.30673125	     -0.93273312	     -0.27046651	      0.84872947	     -0.89747464	     31.61980971	     -8.48901255	     -6.42119874	     29.39143387	      0.51297729	     14.66298270	      0.00000000	      0.00000000	     31.37910172	    -10.45208650	      0.87574259	     25.95647478	      0.45302595	     14.89278762	      0.00000000	      0.00000000	     -0.82320400	      0.03244785	     -0.25194955	    -20.01205100	    -42.42210128	     32.02010486	     89.23818589	     35.89611474	      0.00000000	      0.00000000	    -25.55447521	    -41.22335332	     24.11923158	     90.40633670	      7.33348985	      0.00000000	      0.00000000
      2.67000000	    -15.84320444	     -0.26960338	     -0.92759449	     -0.27112681	      0.84774121	     -0.89759150	     32.06606324	     -8.57518425	     -6.38944293	     29.83366674	      0.52069571	     14.87412090	      0.00000000	      0.00000000	     31.82697782	    -10.44777449	      0.79294238	     26.44672737	      0.46158247	     15.10656168	      0.00000000	      0.00000000	     -0.85528117	      0.02328849	     -0.25627925	    -20.12412950	    -42.36262183	     31.78107201	     89.18541497	     36.61200945	      0.00000000	      0.00000000	    -25.62614081	    -41.12637801	     24.00085159	     90.44974623	      7.23305818	      0.00000000	      0.00000000
